# xmcd CD database file
#
# Track frame offsets:
#	150
#	17077
#	34080
#
# Disc length: 918 seconds
#
# Revision: 1
# Processed by: cddbd v1.5.1PL0 Copyright (c) Steve Scherf et al.
# Submitted via: CDex 1.51
#
DISCID=1a039403
DTITLE=麻帆良学園中等部2-A(古菲、近衛木乃香、早乙女ハルナ、桜咲刹那、佐々木まき絵) - ハッピー☆マテリアル
DYEAR=2005
DGENRE=
TTITLE0=ハッピー☆マテリアル
TTITLE1=ハッピー☆マテリアル(More Happy Instrumental Ver)
TTITLE2=シアワセノジカン
EXTD=YEAR: 2005
EXTT0=
EXTT1=
EXTT2=
PLAYORDER=
